<svg xmlns="http://www.w3.org/2000/svg" xmlns:xlink="http://www.w3.org/1999/xlink" version="1.1" x="0px" y="0px"  enable-background="new 0 0 446.49 263.071" xml:space="preserve" preserveAspectRatio="xMinYMin meet" viewBox="0 0 446.49 263.071">
  <path fill="none" stroke="#FBF5F4" stroke-width="4" stroke-miterlimit="10" d="M428.499 54.24c0-1.604-2.451-25.419-8.787-42.814 -2.82-7.741-24.116-3.474-49.258-4.906 0 0-6.477-4.468-8.99-4.495 -42.51-0.458-108.314 5.722-156.954 8.992 -1.47 0.099-4.904 3.27-4.904 3.27l-79.651-0.971c0 0-36.628-0.49-37.858 0.562 -1.467 1.252 0 17.371 0 17.371 2.451 9.605-31.596 24.194-35.152 26.159 -1.471 0.813-4.859-3.052-6.335-2.248 -5.86 3.189-10.809 9.585-14.987 18.052 -1.81 3.664 21.219-0.123 19.688 4.224 -5.006 14.209-8.219 30.121-13.942 48.438 -2.948 9.435-22.23 13.346-22.23 22.886 0 28.611-0.001 42.305-0.001 51.856C2.275 201.488 2 203.162 2 212.134c0 8.973 4.298 9.337 8.361 9.337h10.423 1.311c0 0 5.794-35.516 12.587-35.516 4.765 0 21.662 0 44.348 0 14.35 0 9.648 39.39 18.802 39.648 44.101 1.247 187.413-2.192 187.413-2.192s1.415-26.486 17.568-30.1c15.532-3.473 31.473-3.678 44.961 0 7.948 2.168 12.157 11.885 15.124 29.021 0.612 3.542 65.806-3.883 65.806-3.883v3.006h7.538c0.864 0 0.107-2.505 0.381-3.976 0.172-0.917 4.434 0.101 5.059-0.92 2.345-3.832 4.389-13.931 1.073-16.094 -2.654-1.732-6.025-1.005-5.978-1.533 0.49-5.459 0.302-23.197 0.302-23.197L428.499 54.24z"/>
  <circle fill="none" stroke="#FBF5F4" stroke-width="4" stroke-miterlimit="10" cx="57.572" cy="230.21" r="30.859"/>
  <circle fill="none" stroke="#FBF5F4" stroke-width="4" stroke-miterlimit="10" cx="57.572" cy="230.21" r="13.693"/>
  <path fill="none" stroke="#FBF5F4" stroke-width="4" stroke-miterlimit="10" d="M323.495 199.35c17.044 0 30.86 13.816 30.86 30.86M292.636 230.21c0-17.044 13.816-30.86 30.859-30.86M323.495 261.071c-17.043 0-30.859-13.816-30.859-30.86M354.355 230.21c0 17.044-13.816 30.86-30.86 30.86"/>
  <circle fill="none" stroke="#FBF5F4" stroke-width="4" stroke-miterlimit="10" cx="323.496" cy="230.21" r="13.692"/>
  <path fill="none" stroke="#FBF5F4" stroke-width="4" stroke-miterlimit="10" d="M221.678 119.74c0 4.063-3.293 7.356-7.356 7.356h-49.049c-4.063 0-7.356-3.293-7.356-7.356V69.874c0-4.063 3.293-7.357 7.356-7.357h49.049c4.063 0 7.356 3.294 7.356 7.357V119.74zM369.232 113.608c0 4.063-3.294 7.357-7.356 7.357h-66.625c-4.063 0-7.357-3.294-7.357-7.357V85.814c0-4.063 3.294-7.356 7.357-7.356h66.625c4.062 0 7.356 3.293 7.356 7.356V113.608zM140.34 119.74c0 4.063-3.293 7.356-7.356 7.356H83.117c-4.063 0-7.357-3.293-7.357-7.356V69.874c0-4.063 3.294-7.357 7.357-7.357h49.866c4.063 0 7.356 3.294 7.356 7.357V119.74z"/>
  <path fill="#FBF5F4" stroke="#FBF5F4" stroke-width="4" stroke-linejoin="round" stroke-miterlimit="10" d="M435.373 152.633H9.136c0 0 7.108-15.963 11.036-15.928 10.238 0.093 414.15-0.002 414.15-0.002L435.373 152.633z"/>
</svg>
