<svg xmlns="http://www.w3.org/2000/svg" version="1.1" x="0" y="0" enable-background="new 0 0 725.72 426.554" xml:space="preserve" preserveAspectRatio="xMinYMin meet" viewBox="0 0 725.7 426.6"> 
	<g display="none">
    <image display="inline" overflow="visible" width="1024" height="683" transform="matrix(1 0 0 1 -148.3613 -245.2939)"/>
  </g>
  <g display="none">
    <rect x="-148.4" y="-245.3" display="inline" fill="#C0392B" stroke="#FFFFFF" stroke-width="4" stroke-miterlimit="10" width="1024" height="683"/>
  </g>
  <path fill="none" stroke="#ECC3BF" stroke-width="4" stroke-linejoin="round" stroke-miterlimit="10" d="M697.6 87.2c0-2.6-4-41.5-14.3-69.8 -4.6-12.6-39.3-5.7-80.3-8 0 0-10.6-7.3-14.7-7.3 -69.3-0.7-176.7 9.3-256 14.7 -2.4 0.2-8 5.3-8 5.3l-129.9-1.6c0 0-59.7-0.8-61.7 0.9 -2.4 2 0 28.3 0 28.3 4 15.7-51.5 39.5-57.3 42.7 -2.4 1.3-7.9-5-10.3-3.7 -9.6 5.2-17.6 15.6-24.4 29.4 -2.9 6 34.6-0.2 32.1 6.9 -8.2 23.2-13.4 49.1-22.7 79 -4.8 15.4-36.3 21.8-36.3 37.3 0 46.7 0 69 0 84.6C2.4 327.4 2 330.1 2 344.7s7 15.2 13.6 15.2h17 2.1c0 0 9.4-57.9 20.5-57.9 7.8 0 35.3 0 72.3 0 23.4 0 15.7 64.2 30.7 64.7 71.9 2 305.7-3.6 305.7-3.6s2.3-43.2 28.7-49.1c25.3-5.7 51.3-6 73.3 0 13 3.5 19.8 19.4 24.7 47.3 1 5.8 107.3-6.3 107.3-6.3v4.9h12.3c1.4 0 0.2-4.1 0.6-6.5 0.3-1.5 7.2 0.2 8.3-1.5 3.8-6.2 7.2-22.7 1.8-26.2 -4.3-2.8-9.8-1.6-9.7-2.5 0.8-8.9 0.5-37.8 0.5-37.8L697.6 87.2z"/>
  <circle fill="none" stroke="#ECC3BF" stroke-width="4" stroke-linejoin="round" stroke-miterlimit="10" cx="92.6" cy="374.2" r="50.3"/>
  <circle fill="none" stroke="#ECC3BF" stroke-width="4" stroke-linejoin="round" stroke-miterlimit="10" cx="92.6" cy="374.2" r="22.3"/>
  <path fill="none" stroke="#ECC3BF" stroke-width="4" stroke-linejoin="round" stroke-miterlimit="10" d="M526.4 323.9c27.8 0 50.3 22.5 50.3 50.3M476 374.2c0-27.8 22.5-50.3 50.3-50.3M526.4 424.6c-27.8 0-50.3-22.5-50.3-50.3M576.7 374.2c0 27.8-22.5 50.3-50.3 50.3"/>
  <circle fill="none" stroke="#ECC3BF" stroke-width="4" stroke-linejoin="round" stroke-miterlimit="10" cx="526.4" cy="374.2" r="22.3"/>
  <path fill="none" stroke="#ECC3BF" stroke-width="4" stroke-linejoin="round" stroke-miterlimit="10" d="M360.3 194c0 6.6-5.4 12-12 12h-80c-6.6 0-12-5.4-12-12v-81.3c0-6.6 5.4-12 12-12h80c6.6 0 12 5.4 12 12V194zM601 184c0 6.6-5.4 12-12 12H480.3c-6.6 0-12-5.4-12-12v-45.3c0-6.6 5.4-12 12-12h108.7c6.6 0 12 5.4 12 12V184zM227.6 194c0 6.6-5.4 12-12 12h-81.3c-6.6 0-12-5.4-12-12v-81.3c0-6.6 5.4-12 12-12h81.3c6.6 0 12 5.4 12 12V194zM87.6 100.7c10.7 2 16 5.3 16 5.3s0.8 52.5 0 70c-0.4 8.7 0 0-3.3 34.7 -1.1 10.9-44 0-44 0L87.6 100.7z"/>
  <line fill="none" stroke="#ECC3BF" stroke-width="4" stroke-linejoin="round" stroke-miterlimit="10" x1="707.1" y1="221.7" x2="31.6" y2="221.7"/>
  <line fill="none" stroke="#ECC3BF" stroke-width="4" stroke-linejoin="round" stroke-miterlimit="10" x1="708.9" y1="246" x2="13.6" y2="246"/>
</svg>
